name D:\school\WTK\thesis\model\3dpredictsim\Results\MidTarsalJoint\Fal_s1_bCst_PF_Natali2010_ls150_MT_k50_d010_MTP_T5_ig23.mot
datacolumns 128
datarows 4
range 1.16993393 1.20503195
endheader
time	pelvis_tilt	pelvis_list	pelvis_rotation	pelvis_tx	pelvis_ty	pelvis_tz	hip_flexion_l	hip_adduction_l	hip_rotation_l	hip_flexion_r	hip_adduction_r	hip_rotation_r	knee_angle_l	knee_angle_r	ankle_angle_l	ankle_angle_r	subtalar_angle_l	subtalar_angle_r	mtj_angle_l	mtj_angle_r	mtp_angle_l	mtp_angle_r	lumbar_extension	lumbar_bending	lumbar_rotation	arm_flex_l	arm_add_l	arm_rot_l	arm_flex_r	arm_add_r	arm_rot_r	elbow_flex_l	elbow_flex_r	pro_sup_l	pro_sup_r	glut_med1_l/activation	glut_med2_l/activation	glut_med3_l/activation	glut_min1_l/activation	glut_min2_l/activation	glut_min3_l/activation	semimem_l/activation	semiten_l/activation	bifemlh_l/activation	bifemsh_l/activation	sar_l/activation	add_long_l/activation	add_brev_l/activation	add_mag1_l/activation	add_mag2_l/activation	add_mag3_l/activation	tfl_l/activation	pect_l/activation	grac_l/activation	glut_max1_l/activation	glut_max2_l/activation	glut_max3_l/activation	iliacus_l/activation	psoas_l/activation	quad_fem_l/activation	gem_l/activation	peri_l/activation	rect_fem_l/activation	vas_med_l/activation	vas_int_l/activation	vas_lat_l/activation	med_gas_l/activation	lat_gas_l/activation	soleus_l/activation	tib_post_l/activation	flex_dig_l/activation	flex_hal_l/activation	tib_ant_l/activation	per_brev_l/activation	per_long_l/activation	per_tert_l/activation	ext_dig_l/activation	ext_hal_l/activation	ercspn_l/activation	intobl_l/activation	extobl_l/activation	glut_med1_r/activation	glut_med2_r/activation	glut_med3_r/activation	glut_min1_r/activation	glut_min2_r/activation	glut_min3_r/activation	semimem_r/activation	semiten_r/activation	bifemlh_r/activation	bifemsh_r/activation	sar_r/activation	add_long_r/activation	add_brev_r/activation	add_mag1_r/activation	add_mag2_r/activation	add_mag3_r/activation	tfl_r/activation	pect_r/activation	grac_r/activation	glut_max1_r/activation	glut_max2_r/activation	glut_max3_r/activation	iliacus_r/activation	psoas_r/activation	quad_fem_r/activation	gem_r/activation	peri_r/activation	rect_fem_r/activation	vas_med_r/activation	vas_int_r/activation	vas_lat_r/activation	med_gas_r/activation	lat_gas_r/activation	soleus_r/activation	tib_post_r/activation	flex_dig_r/activation	flex_hal_r/activation	tib_ant_r/activation	per_brev_r/activation	per_long_r/activation	per_tert_r/activation	ext_dig_r/activation	ext_hal_r/activation	ercspn_r/activation	intobl_r/activation	extobl_r/activation	
          1.16993393	         -2.92949958	         -2.44541130	          6.57311872	          1.46241742	          0.91616255	         -0.00165268	        -15.79581901	         -2.14972876	          6.01313699	         29.06132115	          3.68296845	         -1.71634443	        -12.25221842	        -10.92700527	         -6.71074460	          4.10443549	         13.78956105	         -5.35177941	         12.40891540	         -0.07511891	         -0.55106408	         -0.79857245	         -1.50265696	          0.58305664	         -2.36056536	          5.14262696	        -13.46519944	         17.51942254	         -6.66557983	        -13.48573486	          6.71846905	         36.42304710	         15.91686570	         86.51662706	         86.51662706	          0.18757180	          0.08654875	          0.06149527	          0.20447996	          0.15976520	          0.10195779	          0.05000286	          0.05000061	          0.05000068	          0.05000024	          0.10195365	          0.11672666	          0.05502340	          0.05975039	          0.05974893	          0.05974959	          0.25380312	          0.06128353	          0.05935065	          0.05000444	          0.05000309	          0.05000490	          0.38078514	          0.58181231	          0.05974818	          0.05975004	          0.05269985	          0.27466621	          0.12287947	          0.05000908	          0.15915205	          0.24560894	          0.33672577	          0.36504074	          0.22756410	          0.16004081	          0.22975949	          0.05000013	          0.05977117	          0.19808432	          0.05000024	          0.05000009	          0.05000046	          0.05203158	          0.07139977	          0.06577781	          0.05000000	          0.05000003	          0.08360434	          0.05000003	          0.05000004	          0.05000005	          0.13605019	          0.07303588	          0.17208857	          0.05000021	          0.05001074	          0.12184306	          0.28877765	          0.30851715	          0.20351967	          0.10710727	          0.05000029	          0.07140432	          0.13935850	          0.05000097	          0.09106216	          0.13562634	          0.05000015	          0.06783261	          0.50798523	          0.24351428	          0.10764703	          0.05975019	          0.12264504	          0.12295403	          0.10610914	          0.06184483	          0.06807384	          0.05050431	          0.05974949	          0.05000397	          0.05974938	          0.45168748	          0.26750253	          0.20370165	          0.14215295	          0.39589993	          0.17425918	          0.05000000	          0.10000517	          0.08670494	
          1.18163327	         -2.92473656	         -2.53438401	          6.84115049	          1.48041049	          0.91503379	         -0.00148232	        -15.72876346	         -2.47124622	          5.78289708	         28.29990793	          3.96818711	         -1.43646437	        -14.06638919	        -11.49639347	         -7.17332904	          3.50339796	         14.51284308	         -5.69783087	         10.95115247	         -0.41163011	          0.64560647	         -0.77419974	         -1.27592244	          0.78058820	         -2.41981091	          4.79388161	        -13.47204777	         17.77420340	         -7.65456471	        -13.48772215	          6.65387720	         37.61482516	         15.57190340	         86.51662706	         86.51662706	          0.30561425	          0.07242650	          0.06298990	          0.30391717	          0.13369627	          0.08532130	          0.05000130	          0.05000014	          0.05000013	          0.05000018	          0.08532054	          0.09768016	          0.05000049	          0.05000098	          0.05000093	          0.05000058	          0.27819341	          0.05128457	          0.05000063	          0.05000437	          0.05000226	          0.05000091	          0.32490824	          0.55960444	          0.05000038	          0.05000187	          0.05000750	          0.22985290	          0.10282983	          0.05194137	          0.13318352	          0.20553240	          0.28178152	          0.31188190	          0.19043235	          0.13392684	          0.19226938	          0.05000001	          0.13166707	          0.20410012	          0.05000013	          0.05000004	          0.05000011	          0.05000003	          0.05974932	          0.05504471	          0.22824518	          0.22597042	          0.25238051	          0.33888990	          0.22900876	          0.19401742	          0.11385088	          0.07151987	          0.14400854	          0.08525222	          0.05000076	          0.10196170	          0.24165721	          0.25817580	          0.17031105	          0.10714789	          0.05000039	          0.05975370	          0.11661946	          0.05000110	          0.10885115	          0.11349604	          0.05408780	          0.05676431	          0.42509620	          0.20377961	          0.19943748	          0.05000063	          0.10263283	          0.10289140	          0.08879512	          0.05175351	          0.05696614	          0.05000012	          0.05000011	          0.05000031	          0.05000040	          0.52611743	          0.32166401	          0.17046393	          0.31615312	          0.48114287	          0.14582864	          0.05403228	          0.13177832	          0.07255711	
          1.19333261	         -2.91822794	         -2.61514324	          7.06714402	          1.49852234	          0.91405954	         -0.00128723	        -15.57787744	         -2.78051938	          5.56978952	         27.50185950	          4.22460637	         -1.16147447	        -15.97362512	        -12.02979507	         -7.70594290	          2.86046950	         15.15601213	         -6.04563456	          9.10696572	         -0.43109387	          2.28277209	         -0.68061243	         -1.05135713	          0.97806642	         -2.46955747	          4.38870805	        -13.48326112	         17.95793254	         -8.62233948	        -13.48795176	          6.65221575	         38.77022993	         15.25847893	         86.51662706	         86.51662706	          0.27471415	          0.06060856	          0.05418457	          0.25432740	          0.11188087	          0.07139933	          0.05000160	          0.05000016	          0.05000015	          0.05000021	          0.07139961	          0.08174169	          0.05000021	          0.05000027	          0.05000063	          0.05000030	          0.23280022	          0.05000209	          0.05000115	          0.05000476	          0.05000209	          0.05000075	          0.27189232	          0.52180409	          0.05000076	          0.05000344	          0.05000055	          0.19234733	          0.08605175	          0.12183791	          0.12183409	          0.17199523	          0.23580262	          0.26099145	          0.15935912	          0.11207381	          0.16089645	          0.05000239	          0.11854539	          0.20594167	          0.05000026	          0.09714392	          0.05000056	          0.06894042	          0.05000001	          0.05000002	          0.32312366	          0.32261933	          0.34403508	          0.28359265	          0.19164208	          0.19784209	          0.09527365	          0.06693266	          0.12051038	          0.07134158	          0.05000072	          0.08532441	          0.20222551	          0.21604883	          0.14252142	          0.13984898	          0.05000033	          0.05000393	          0.09759065	          0.19851019	          0.17066780	          0.13724352	          0.05000005	          0.05000006	          0.35573236	          0.17052850	          0.16689507	          0.05000006	          0.11362674	          0.12762173	          0.09557522	          0.05000002	          0.05000004	          0.05000000	          0.05000002	          0.05000009	          0.05000010	          0.58565192	          0.29690077	          0.16647073	          0.52916573	          0.51821871	          0.26542969	          0.07311974	          0.11027577	          0.06071781	
          1.20503195	         -2.91017131	         -2.68901590	          7.25025179	          1.51658359	          0.91334945	         -0.00106015	        -15.31649750	         -3.07234613	          5.37483723	         26.76254724	          4.49081560	         -0.89228713	        -17.98173780	        -12.65503809	         -8.32455179	          2.21627865	         15.70425730	         -6.39948085	          6.87990101	         -0.44071636	          4.25553064	         -0.63717969	         -0.84006155	          1.17947307	         -2.51181699	          3.96430339	        -13.49493339	         18.10680489	         -9.53437676	        -13.48451857	          6.69321228	         39.84247037	         14.96358940	         86.51662706	         86.51662706	          0.26359125	          0.05071897	          0.05000004	          0.21282865	          0.09362510	          0.05974901	          0.05000134	          0.05000013	          0.05000013	          0.05000008	          0.05974940	          0.11428807	          0.06779226	          0.05000389	          0.05000429	          0.08542714	          0.19481383	          0.05974768	          0.05000037	          0.05000135	          0.05000086	          0.05000058	          0.22752708	          0.47147012	          0.05000008	          0.05000030	          0.05000008	          0.16096160	          0.10195908	          0.10195910	          0.10195902	          0.14393039	          0.19732620	          0.21840490	          0.13335617	          0.09378657	          0.13464269	          0.10725934	          0.14319671	          0.17233785	          0.06853725	          0.16007175	          0.05000085	          0.09029992	          0.05000001	          0.05000003	          0.40857011	          0.40683102	          0.43269439	          0.26035928	          0.20841526	          0.28613398	          0.07972787	          0.07791344	          0.10084653	          0.05970088	          0.05000032	          0.07140189	          0.16922808	          0.18079737	          0.18900470	          0.16775803	          0.05000023	          0.05000897	          0.08789783	          0.25434805	          0.20954199	          0.17443067	          0.05000010	          0.05000009	          0.29768677	          0.14270306	          0.18140762	          0.05000005	          0.20400474	          0.21273825	          0.17370569	          0.05000003	          0.05000009	          0.05000001	          0.09371477	          0.05000389	          0.05000074	          0.66832197	          0.24845485	          0.13930735	          0.44282069	          0.49933280	          0.29759873	          0.08792160	          0.09228184	          0.05081037	
